HIERARCHY
ROOT joint_Root
{
	OFFSET 0.0 0.0 0.0
	CHANNELS 6 Xposition Yposition Zposition Zrotation Xrotation Yrotation 
	JOINT Hips
	{
		OFFSET -0.726466 93.3139 -2.00062
		CHANNELS 6 Xposition Yposition Zposition Zrotation Xrotation Yrotation 
		JOINT Spine
		{
			OFFSET 15.7357 0.0 0.0
			CHANNELS 6 Xposition Yposition Zposition Zrotation Xrotation Yrotation 
			JOINT Chest
			{
				OFFSET 8.98455 -0.406207 0.0
				CHANNELS 6 Xposition Yposition Zposition Zrotation Xrotation Yrotation 
				JOINT Neck
				{
					OFFSET 16.3773 0.0 0.0
					CHANNELS 6 Xposition Yposition Zposition Zrotation Xrotation Yrotation 
					JOINT Head
					{
						OFFSET 6.45672 0.0 0.0
						CHANNELS 6 Xposition Yposition Zposition Zrotation Xrotation Yrotation 
						End Site
						{
							OFFSET 0.0 0.0 0.0
						}
					}
				}
				JOINT Shoulder_L
				{
					OFFSET 12.9942 -0.242716 4.98039
					CHANNELS 6 Xposition Yposition Zposition Zrotation Xrotation Yrotation 
					JOINT UpperArm_L
					{
						OFFSET 5.34809 0.0 0.0
						CHANNELS 6 Xposition Yposition Zposition Zrotation Xrotation Yrotation 
						JOINT LowerArm_L
						{
							OFFSET 24.3286 1.87007e-05 0.0
							CHANNELS 6 Xposition Yposition Zposition Zrotation Xrotation Yrotation 
							JOINT Hand_L
							{
								OFFSET 22.2916 0.0 0.0
								CHANNELS 6 Xposition Yposition Zposition Zrotation Xrotation Yrotation 
								End Site
								{
									OFFSET 0.0 0.0 0.0
								}
							}
						}
					}
				}
				JOINT Shoulder_R
				{
					OFFSET 12.9945 -0.242716 -4.98039
					CHANNELS 6 Xposition Yposition Zposition Zrotation Xrotation Yrotation 
					JOINT UpperArm_R
					{
						OFFSET -5.34813 0.0 0.0
						CHANNELS 6 Xposition Yposition Zposition Zrotation Xrotation Yrotation 
						JOINT LowerArm_R
						{
							OFFSET -24.3289 0.000322201 0.0
							CHANNELS 6 Xposition Yposition Zposition Zrotation Xrotation Yrotation 
							JOINT Hand_R
							{
								OFFSET -22.2915 -0.000108084 0.0
								CHANNELS 6 Xposition Yposition Zposition Zrotation Xrotation Yrotation 
								End Site
								{
									OFFSET 0.0 0.0 0.0
								}
							}
						}
					}
				}
			}
		}
		JOINT UpperLeg_L
		{
			OFFSET -2.19248 -6.46944 0.0
			CHANNELS 6 Xposition Yposition Zposition Zrotation Xrotation Yrotation 
			JOINT LowerLeg_L
			{
				OFFSET 39.0811 0.0 -1.23785e-05
				CHANNELS 6 Xposition Yposition Zposition Zrotation Xrotation Yrotation 
				JOINT Foot_L
				{
					OFFSET 40.9854 0.0 -1.26872e-05
					CHANNELS 6 Xposition Yposition Zposition Zrotation Xrotation Yrotation 
					JOINT Toes_L
					{
						OFFSET 11.7543 0.0 0.0
						CHANNELS 6 Xposition Yposition Zposition Zrotation Xrotation Yrotation 
						End Site
						{
							OFFSET 0.0 0.0 0.0
						}
					}
				}
			}
		}
		JOINT UpperLeg_R
		{
			OFFSET -2.19251 6.46944 0.0
			CHANNELS 6 Xposition Yposition Zposition Zrotation Xrotation Yrotation 
			JOINT LowerLeg_R
			{
				OFFSET -39.0811 -0.00228153 -0.0401928
				CHANNELS 6 Xposition Yposition Zposition Zrotation Xrotation Yrotation 
				JOINT Foot_R
				{
					OFFSET -40.9854 0.0 0.0
					CHANNELS 6 Xposition Yposition Zposition Zrotation Xrotation Yrotation 
					JOINT Toes_R
					{
						OFFSET -11.7543 0.0 0.0
						CHANNELS 6 Xposition Yposition Zposition Zrotation Xrotation Yrotation 
						End Site
						{
							OFFSET 0.0 0.0 0.0
						}
					}
				}
			}
		}
	}
}
MOTION
Frames:	4
Frame Time:	0.0333333
0.000000 0.000000 0.000000 0.000000 0.000000 -0.000000 -0.361121 92.304500 -1.094280 88.127500 -0.639972 5.082210 15.735700 0.000005 -0.000001 84.307400 84.887700 -83.528100 8.984550 -0.406207 -0.000000 2.416140 -1.049760 1.579150 16.377300 -0.000001 -0.000001 2.686940 -2.560070 -0.312235 6.456720 -0.000001 -0.000000 5.872580 -3.272670 -0.577231 12.994200 -0.242716 4.980390 -89.954100 -0.148192 -72.784200 5.348090 -0.000007 -0.000001 -68.064200 38.507300 -15.593500 24.328600 0.000019 0.000005 1.502980 3.700560 -22.122000 22.291600 -0.000001 0.000005 4.895580 5.456780 -4.883340 12.994500 -0.242716 -4.980390 88.293100 5.573070 -72.941100 -5.348130 -0.000001 -0.000004 -65.207100 40.997800 -16.202200 -24.328900 0.000322 -0.000009 2.470770 8.395240 -16.471400 -22.291500 -0.000108 -0.000004 9.395180 5.409590 -3.251560 -2.192480 -6.469440 -0.000000 -175.442000 -8.351680 -2.123680 39.081100 -0.000007 -0.000012 -0.101539 0.237182 23.176200 40.985400 -0.000006 -0.000013 0.211197 4.431700 -66.136200 11.754300 -0.000000 0.000003 -0.000040 -0.000464 -16.595600 -2.192510 6.469440 -0.000001 179.431000 14.009300 -179.386000 -39.081100 -0.002282 -0.040193 -0.057143 0.169544 19.628000 -40.985400 0.000008 0.000006 2.843320 8.138510 -65.540800 -11.754300 -0.000006 -0.000006 -0.008926 -0.095433 -20.460200
0.000000 0.000000 0.000000 0.000000 0.000000 -0.000000 -0.377371 92.303200 -1.115160 88.113000 -0.701986 5.053970 15.735700 0.000005 -0.000001 84.244300 84.882600 -83.412400 8.984550 -0.406207 -0.000000 2.425840 -1.064360 1.684740 16.377300 -0.000001 -0.000001 2.611230 -2.506670 -0.301646 6.456720 -0.000001 -0.000000 5.821320 -3.212390 -0.824523 12.994200 -0.242716 4.980390 -90.020600 0.065651 -72.603800 5.348090 -0.000007 -0.000001 -66.673900 39.455200 -16.443300 24.328600 0.000019 0.000005 2.577070 5.759330 -24.138500 22.291600 -0.000001 0.000005 3.428290 5.458150 -4.937570 12.994500 -0.242716 -4.980390 88.330400 5.462940 -72.977000 -5.348130 -0.000001 -0.000004 -65.298900 40.815100 -16.268200 -24.328900 0.000322 -0.000009 2.474460 8.407860 -16.471400 -22.291500 -0.000108 -0.000004 9.381720 5.409780 -3.258020 -2.192480 -6.469440 -0.000000 -175.421000 -8.366950 -2.178780 39.081100 -0.000007 -0.000012 -0.101795 0.237437 23.206100 40.985400 -0.000006 -0.000013 0.190854 4.391110 -66.133800 11.754300 -0.000000 0.000003 -0.000040 -0.000467 -16.595800 -2.192510 6.469440 -0.000001 179.457000 14.079100 -179.446000 -39.081100 -0.002282 -0.040193 -0.057309 0.169755 19.655200 -40.985400 0.000008 0.000006 2.905170 8.232800 -65.545300 -11.754300 -0.000006 -0.000006 -0.009077 -0.096609 -20.508300
0.000000 0.000000 0.000000 0.000000 0.000000 -0.000000 -0.389523 92.311900 -1.138460 88.075000 -0.771753 5.021090 15.735700 0.000005 -0.000001 85.232000 84.873700 -84.319900 8.984550 -0.406207 -0.000000 2.459140 -0.893747 1.841390 16.377300 -0.000001 -0.000001 2.481910 -2.481280 -0.285545 6.456720 -0.000001 -0.000000 5.675020 -3.264440 -1.163450 12.994200 -0.242716 4.980390 -90.167500 0.527108 -72.376100 5.348090 -0.000007 -0.000001 -64.655400 38.388600 -17.384100 24.328600 0.000019 0.000005 5.211960 9.268790 -29.517600 22.291600 -0.000001 0.000005 1.495770 5.480920 -5.783310 12.994500 -0.242716 -4.980390 88.384500 5.278020 -72.955300 -5.348130 -0.000001 -0.000004 -65.655800 40.351700 -16.065100 -24.328900 0.000322 -0.000009 2.506740 8.470620 -16.558700 -22.291500 -0.000108 -0.000004 9.391960 5.406830 -3.160620 -2.192480 -6.469440 -0.000000 -175.375000 -8.386030 -2.199870 39.081100 -0.000007 -0.000012 -0.103273 0.241218 23.177300 40.985400 -0.000006 -0.000013 0.169929 4.358080 -66.110800 11.754300 -0.000000 0.000003 -0.000043 -0.000491 -16.596700 -2.192510 6.469440 -0.000001 179.522000 14.085000 -179.472000 -39.081100 -0.002282 -0.040193 -0.054633 0.162840 19.590800 -40.985400 0.000008 0.000006 2.993540 8.304010 -65.505100 -11.754300 -0.000006 -0.000006 -0.008941 -0.095549 -20.464900
0.000000 0.000000 0.000000 0.000000 0.000000 -0.000000 -0.427151 92.318500 -1.209240 88.088300 -0.623207 4.955080 15.735700 0.000005 -0.000001 86.261200 84.876500 -85.290500 8.984550 -0.406207 -0.000000 2.466000 -0.712512 1.954800 16.377300 -0.000001 -0.000001 2.427520 -2.492310 -0.361011 6.456720 -0.000001 -0.000000 5.491160 -3.460340 -1.394800 12.994200 -0.242716 4.980390 -90.287600 0.881888 -71.937600 5.348090 -0.000007 -0.000001 -61.257800 36.175700 -19.475200 24.328600 0.000019 0.000005 5.928680 7.747160 -37.628300 22.291600 -0.000001 0.000005 3.370470 5.517170 -7.211890 12.994500 -0.242716 -4.980390 88.450700 5.080790 -73.016800 -5.348130 -0.000001 -0.000004 -66.148900 39.878900 -15.619300 -24.328900 0.000322 -0.000009 2.498750 8.399710 -16.639400 -22.291500 -0.000108 -0.000004 9.351300 5.407460 -3.181370 -2.192480 -6.469440 -0.000000 -175.404000 -8.208910 -2.342350 39.081100 -0.000007 -0.000012 -0.103163 0.241077 23.167400 40.985400 -0.000006 -0.000013 0.141250 4.323400 -66.035300 11.754300 -0.000000 0.000003 -0.000042 -0.000483 -16.596300 -2.192510 6.469440 -0.000001 179.520000 14.310800 -179.560000 -39.081100 -0.002282 -0.040193 -0.057087 0.170011 19.561400 -40.985400 0.000008 0.000006 2.919680 8.381930 -65.442300 -11.754300 -0.000006 -0.000006 -0.008870 -0.094991 -20.442100
